<?xml version="1.0" standalone="no"?>
<!DOCTYPE svg PUBLIC "-//W3C//DTD SVG 20010904//EN"
 "http://www.w3.org/TR/2001/REC-SVG-20010904/DTD/svg10.dtd">
<svg version="1.0" xmlns="http://www.w3.org/2000/svg"
 width="512.000000pt" height="512.000000pt" viewBox="0 0 512.000000 512.000000"
 preserveAspectRatio="xMidYMid meet">
<metadata>
Created by potrace 1.14, written by Peter Selinger 2001-2017
</metadata>
<g transform="translate(0.000000,512.000000) scale(0.100000,-0.100000)"
fill="#000000" stroke="none">
<path d="M0 2560 l0 -2560 2560 0 2560 0 0 2560 0 2560 -2560 0 -2560 0 0
-2560z m2607 1154 c12 -8 37 -34 55 -58 45 -61 73 -72 149 -57 34 7 62 11 63
9 2 -2 8 -18 15 -35 8 -18 15 -33 17 -33 3 0 61 43 130 95 69 52 129 95 134
95 9 0 156 -198 166 -223 10 -28 -70 -61 -148 -62 -42 0 -72 -5 -80 -13 -11
-11 -8 -11 15 -3 38 15 90 14 105 -1 9 -9 21 -7 51 10 21 12 47 22 57 22 9 0
37 -20 61 -45 36 -38 43 -52 45 -88 1 -37 2 -38 5 -9 2 17 8 32 12 32 11 0 66
-60 55 -60 -10 0 23 -17 108 -54 65 -28 93 -63 85 -105 -4 -20 -2 -31 7 -34
21 -8 26 -69 7 -85 -12 -10 -12 -12 -1 -6 8 4 22 13 31 21 20 17 22 15 138
-156 l91 -134 -88 -64 c-48 -36 -99 -76 -114 -90 -14 -14 -32 -22 -38 -18 -6
4 1 -17 16 -46 60 -119 123 -356 145 -549 11 -100 8 -344 -6 -400 -10 -42 33
38 46 85 6 22 25 56 43 75 42 44 59 123 46 207 -8 50 -15 63 -50 93 -39 35
-52 71 -29 86 6 3 24 33 39 66 l29 60 10 -39 c70 -251 79 -420 28 -524 -32
-67 -109 -142 -175 -171 -47 -21 -49 -21 -1502 -22 -1400 -1 -1456 0 -1489 18
-62 33 -127 103 -156 167 -37 84 -41 151 -17 284 44 235 67 261 75 88 4 -92 1
-127 -10 -158 -9 -22 -18 -61 -20 -87 l-5 -48 107 -107 c69 -69 104 -99 99
-83 -14 40 -8 294 10 425 15 108 36 214 53 270 4 15 0 14 -16 -7 -13 -16 -26
-28 -29 -28 -4 0 -20 19 -35 42 -29 46 -36 44 -12 -2 l15 -29 -65 -36 c-73
-41 -90 -40 -130 7 -29 35 -85 140 -85 160 0 12 170 92 195 93 6 0 14 18 18
40 5 22 15 55 23 73 14 32 13 33 -14 43 -64 25 -91 73 -67 123 17 35 50 56 88
56 32 0 38 7 86 102 61 120 156 245 280 366 100 99 106 103 114 80 5 -12 15
-36 23 -53 8 -16 11 -21 7 -10 -4 11 -9 47 -11 80 -9 146 80 207 203 141 60
-31 74 -32 109 -5 18 14 26 30 26 53 0 36 13 56 50 79 22 14 27 14 44 1 30
-22 43 -18 94 31 25 25 62 50 80 56 61 20 105 -8 81 -53 -18 -33 11 -43 106
-39 87 5 242 -31 248 -57 2 -9 2 -2 0 15 -10 82 50 172 106 158 14 -3 36 -13
48 -21z m-872 -183 c10 -17 -26 -41 -59 -41 -47 0 -52 11 -14 32 37 19 64 23
73 9z m2141 -987 c18 -32 36 -72 40 -89 6 -27 2 -24 -37 25 -24 30 -54 64 -65
76 -20 20 -20 24 -5 38 22 23 31 17 67 -50z"/>
<path d="M2180 3607 c0 -3 29 -29 65 -57 35 -29 62 -57 59 -61 -3 -5 14 -9 38
-8 l43 1 -35 8 c-19 5 -45 21 -58 36 -27 30 -112 92 -112 81z"/>
<path d="M2445 3500 c-3 -5 -1 -10 4 -10 6 0 11 5 11 10 0 6 -2 10 -4 10 -3 0
-8 -4 -11 -10z"/>
<path d="M2538 3483 c12 -2 30 -2 40 0 9 3 -1 5 -23 4 -22 0 -30 -2 -17 -4z"/>
<path d="M2198 3463 c7 -3 16 -2 19 1 4 3 -2 6 -13 5 -11 0 -14 -3 -6 -6z"/>
<path d="M2668 3463 c6 -2 18 -2 25 0 6 3 1 5 -13 5 -14 0 -19 -2 -12 -5z"/>
<path d="M2158 3453 c7 -3 16 -2 19 1 4 3 -2 6 -13 5 -11 0 -14 -3 -6 -6z"/>
<path d="M2718 3453 c7 -3 16 -2 19 1 4 3 -2 6 -13 5 -11 0 -14 -3 -6 -6z"/>
<path d="M2825 3420 c78 -32 128 -50 120 -42 -13 11 -114 52 -129 51 -6 0 -2
-4 9 -9z"/>
<path d="M3070 3410 c-8 -5 -12 -12 -9 -15 4 -3 12 1 19 10 14 17 11 19 -10 5z"/>
<path d="M1983 3400 c-34 -14 -28 -21 7 -9 17 6 30 13 30 15 0 6 -12 4 -37 -6z"/>
<path d="M2950 3401 c0 -5 5 -13 10 -16 6 -4 8 -10 6 -14 -3 -4 16 -17 42 -29
26 -12 38 -16 27 -9 -11 6 -35 27 -52 45 -18 18 -33 29 -33 23z"/>
<path d="M1868 3344 c-27 -13 -48 -27 -48 -29 0 -5 99 42 109 51 13 11 -20 0
-61 -22z"/>
<path d="M3073 3308 c11 -7 50 -33 88 -58 172 -112 346 -303 483 -530 62 -103
70 -113 42 -55 -22 46 -100 168 -156 243 -20 27 -21 33 -9 49 13 16 12 17 -4
4 -16 -13 -21 -9 -54 30 -93 113 -275 266 -367 310 -23 11 -33 14 -23 7z"/>
<path d="M1675 3226 c-69 -47 -144 -110 -200 -168 l-90 -92 102 97 c55 53 147
126 202 162 88 58 110 75 98 75 -2 0 -52 -33 -112 -74z"/>
<path d="M1448 3219 c12 -20 22 -39 22 -43 0 -3 -17 -6 -37 -6 -62 0 -112 -19
-155 -58 -75 -67 -104 -181 -74 -284 20 -71 20 -71 -6 -63 -23 6 -23 6 1 -13
13 -11 21 -24 17 -31 -4 -6 -5 -11 -2 -11 3 0 15 17 26 38 11 20 27 48 36 62
12 19 10 18 -10 -5 -22 -25 -28 -28 -36 -15 -39 59 -35 174 8 253 44 81 108
117 209 117 l54 0 -27 38 c-40 54 -50 62 -26 21z"/>
<path d="M3650 2973 c-51 -30 -106 -73 -92 -73 5 0 15 7 23 16 7 8 34 26 60
40 26 13 50 28 54 34 8 13 8 13 -45 -17z"/>
<path d="M1364 2938 l-19 -23 23 19 c21 18 27 26 19 26 -2 0 -12 -10 -23 -22z"/>
<path d="M1329 2893 c-13 -16 -12 -17 4 -4 9 7 17 15 17 17 0 8 -8 3 -21 -13z"/>
<path d="M1299 2853 c-13 -16 -12 -17 4 -4 16 13 21 21 13 21 -2 0 -10 -8 -17
-17z"/>
<path d="M1068 2793 c6 -2 18 -2 25 0 6 3 1 5 -13 5 -14 0 -19 -2 -12 -5z"/>
<path d="M1165 2629 c-9 -17 -15 -33 -13 -35 3 -2 12 12 21 31 21 43 13 47 -8
4z"/>
<path d="M935 2560 c3 -5 8 -10 11 -10 2 0 4 5 4 10 0 6 -5 10 -11 10 -5 0 -7
-4 -4 -10z"/>
<path d="M1112 2515 c-17 -37 -14 -45 4 -12 9 16 14 31 11 33 -2 2 -9 -7 -15
-21z"/>
<path d="M1086 2455 c-9 -26 -7 -32 5 -12 6 10 9 21 6 23 -2 3 -7 -2 -11 -11z"/>
<path d="M871 2434 c-1 -15 30 -106 35 -101 2 2 -5 28 -15 58 -11 30 -20 49
-20 43z"/>
<path d="M1855 2427 c-56 -22 -73 -37 -94 -80 -96 -199 159 -369 299 -199 112
136 -40 343 -205 279z m95 -147 c6 -12 8 -30 5 -41 -10 -30 -69 -23 -73 9 -2
13 -1 30 2 38 8 21 54 17 66 -6z"/>
<path d="M2866 2430 c-85 -26 -139 -147 -105 -237 49 -131 237 -152 314 -34
58 86 34 203 -50 247 -47 26 -118 36 -159 24z m92 -142 c31 -31 -11 -88 -50
-67 -34 18 -17 79 22 79 9 0 21 -5 28 -12z"/>
<path d="M1031 2294 c0 -11 3 -14 6 -6 3 7 2 16 -1 19 -3 4 -6 -2 -5 -13z"/>
<path d="M2322 2092 c-89 -32 -142 -100 -142 -182 0 -57 14 -80 50 -80 33 0
54 25 65 77 10 49 57 78 125 77 72 -1 104 -22 126 -82 23 -61 32 -72 60 -72
46 0 69 78 43 147 -40 105 -198 161 -327 115z"/>
</g>
</svg>
